<?xml version="1.0" encoding="UTF-8" standalone="no"?><!-- Generator: Gravit.io --><svg xmlns="http://www.w3.org/2000/svg" xmlns:xlink="http://www.w3.org/1999/xlink" style="isolation:isolate" viewBox="0 0 1000 1000" width="1000pt" height="1000pt"><defs><clipPath id="_clipPath_b7TvHtUNS6uKrAiLMWhfXe8vjd0r9wwW"><rect width="1000" height="1000"/></clipPath></defs><g clip-path="url(#_clipPath_b7TvHtUNS6uKrAiLMWhfXe8vjd0r9wwW)"><g><path d=" M 476.2 0 L 523.8 0 C 583.41 4.39 643.88 16.18 698.84 41.14 C 798.67 84.07 883.64 160.68 936.21 255.78 C 975.45 324.31 995.23 403.05 1000 481.21 L 1000 526.94 C 992.84 623.85 960.79 720.49 901.28 798.27 C 820.95 908.16 693.18 981.44 558.01 996.59 C 546.17 1000.02 533.57 996.26 521.93 1000 L 476.2 1000 C 390.62 994.93 304.95 969.54 232.43 922.68 C 105.02 843.37 17.75 703.53 3.04 554.08 C 0.62 545.14 3.26 535.62 0 526.93 L 0 468.07 C 3.1 459.7 0.84 450.53 3.13 441.93 C 16.67 320.05 77.38 204.21 170.04 124 C 253.97 49.14 364.6 6.28 476.2 0 Z  M 492.54 83.65 C 486.69 85.06 484.34 90.73 480.74 94.85 C 420.43 217.13 358.28 338.74 298.23 461.24 C 258.94 462.43 219.41 461 180.07 461.93 C 161.56 466.69 160.72 496.25 179.55 501.28 C 212.05 502.42 244.73 500.84 277.27 502.05 C 242.23 572.55 206.79 643.16 171.55 713.66 C 160.76 725.41 165.36 747.74 181.95 750.98 C 393.98 751.02 606.03 751.02 818.06 750.98 C 830.22 748.49 837 734.96 833.58 723.32 C 804.57 667.05 777.12 609.91 748.08 553.62 C 772.27 552.57 796.63 554.3 820.74 552.77 C 840.07 548.06 837.39 517.25 818.87 513.42 C 788.87 513.26 758.85 513.41 728.85 513.36 C 721.3 501.29 715.52 488.14 709.81 475.23 C 745.79 474.42 781.84 475.46 817.81 474.72 C 832.64 473.28 839.08 453.87 830.11 442.79 C 824.78 434.54 813.67 434.82 804.99 435.01 C 766.45 434.96 727.9 435.3 689.37 434.84 C 682.43 423.38 677.07 408.99 669.54 397.03 C 720.57 396.04 771.68 397.06 822.71 396.52 C 839.1 389.56 837.9 360.73 818.85 358.46 C 762.89 358.22 706.9 358.43 650.92 358.36 C 644.67 345.61 637.39 333.32 631.98 320.08 C 693.99 319.77 756.01 320.05 818.01 319.94 C 831.6 317.54 839.17 299.43 830.92 288.09 C 827.18 280.5 817.52 279.39 810 279.98 C 745.31 280.14 680.63 280 615.95 280.06 C 611.64 280.55 610.18 275.84 607.98 273.11 C 579.52 215.28 550.27 157.84 521.75 100.02 C 517.83 87.98 505.52 78.92 492.54 83.65 Z " fill="rgb(251,43,107)"/><path d=" M 608.35 282.48 C 615.9 289.69 620.57 303.55 626.03 313.87 C 629.15 319.17 623.65 322.49 619.13 323.39 C 562.5 355.52 503.3 385.05 447.58 417.71 C 515.62 400.67 581.61 376.63 649.59 360.44 C 654.92 372.26 661.57 383.94 667.04 395.92 C 601.96 414.95 536.75 432.49 471.32 449.46 C 507.48 452.75 542.91 443.41 579.04 445.07 C 614.71 441.13 650.92 438.41 686.49 437.32 C 695.12 447.53 698.75 461.25 705.29 472.72 C 676.52 477.83 646.96 477.97 617.67 478.91 C 589.81 481.01 561.99 484.23 534 485.05 C 524.22 485.61 513.85 483.18 504.7 487.74 C 578.78 497.19 652.86 505.81 726.96 515.14 C 732.35 526.11 738.75 539.92 745.13 551.79 C 614.02 538.48 483.02 523.02 352 508.3 C 327.88 508.36 304.33 499.81 280.07 501.69 C 286.97 489 292.12 475.05 300 462.94 C 402.37 402.13 506.88 341.92 608.35 282.48 Z " fill="rgb(251,43,107)"/></g><g><path d=" M 492.54 83.65 C 505.52 78.92 517.83 87.98 521.75 100.02 C 550.27 157.84 579.52 215.28 607.98 273.11 C 610.18 275.84 611.64 280.55 615.95 280.06 C 680.63 280 745.31 280.14 810 279.98 C 817.52 279.39 827.18 280.5 830.92 288.09 C 839.17 299.43 831.6 317.54 818.01 319.94 C 756.01 320.05 693.99 319.77 631.98 320.08 C 637.39 333.32 644.67 345.61 650.92 358.36 C 706.9 358.43 762.89 358.22 818.85 358.46 C 837.9 360.73 839.1 389.56 822.71 396.52 C 771.68 397.06 720.57 396.04 669.54 397.03 C 677.07 408.99 682.43 423.38 689.37 434.84 C 727.9 435.3 766.45 434.96 804.99 435.01 C 813.67 434.82 824.78 434.54 830.11 442.79 C 839.08 453.87 832.64 473.28 817.81 474.72 C 781.84 475.46 745.79 474.42 709.81 475.23 C 715.52 488.14 721.3 501.29 728.85 513.36 C 758.85 513.41 788.87 513.26 818.87 513.42 C 837.39 517.25 840.07 548.06 820.74 552.77 C 796.63 554.3 772.27 552.57 748.08 553.62 C 777.12 609.91 804.57 667.05 833.58 723.32 C 837 734.96 830.22 748.49 818.06 750.98 C 606.03 751.02 393.98 751.02 181.95 750.98 C 165.36 747.74 160.76 725.41 171.55 713.66 C 206.79 643.16 242.23 572.55 277.27 502.05 C 244.73 500.84 212.05 502.42 179.55 501.28 C 160.72 496.25 161.56 466.69 180.07 461.93 C 219.41 461 258.94 462.43 298.23 461.24 C 358.28 338.74 420.43 217.13 480.74 94.85 C 484.34 90.73 486.69 85.06 492.54 83.65 Z " fill="rgb(255,254,254)"/><path d=" M 608.35 282.48 C 506.88 341.92 402.37 402.13 300 462.94 C 299.651 462.946 279.447 501.928 280.07 501.69 Q 279.685 501.928 492.54 523.949 L 745.13 551.79 L 726.96 515.14 L 504.7 487.74 L 534 485.05 Q 589.81 481.01 617.67 478.91 Q 646.96 477.97 705.29 472.72 L 686.49 437.32 L 617.67 442.79 L 534 447.145 L 471.32 449.46 Q 601.96 414.95 667.04 395.92 Q 661.57 383.94 649.59 360.44 L 447.58 417.71 L 619.13 323.39 Q 629.15 319.17 626.03 313.87 C 620.57 303.55 615.9 289.69 608.35 282.48 Z " fill="rgb(251,43,107)"/></g></g></svg>