<svg width="81" height="25" viewBox="0 0 81 25" fill="none" xmlns="http://www.w3.org/2000/svg">
<path d="M72.3369 23.9751C70.7167 23.9751 69.2825 23.6357 68.0345 22.957C66.8083 22.2563 65.8449 21.282 65.1443 20.0339C64.4656 18.764 64.1261 17.2751 64.1261 15.5673V15.1732C64.1261 13.4653 64.4656 11.9874 65.1443 10.7394C65.823 9.46947 66.7754 8.49515 68.0016 7.81633C69.2277 7.1157 70.651 6.76538 72.2712 6.76538C73.8696 6.76538 75.2599 7.12664 76.4422 7.84917C77.6246 8.54989 78.5442 9.53515 79.201 10.805C79.8579 12.0531 80.1863 13.5091 80.1863 15.1732V16.1293C80.1863 16.3812 79.9821 16.5854 79.7302 16.5854H68.8044C68.5455 16.5854 68.3357 16.8015 68.3725 17.0578C68.5023 17.9611 68.904 18.7123 69.5781 19.3114C70.3663 20.012 71.3297 20.3623 72.4682 20.3623C73.6287 20.3623 74.4826 20.1106 75.03 19.607C75.4486 19.2219 75.7904 18.8047 76.0554 18.3555C76.1877 18.1311 76.4712 18.0333 76.702 18.1543C76.702 18.1543 78.4795 19.0861 79.2791 19.5053C79.38 19.5582 79.4546 19.6503 79.4853 19.7601C79.5161 19.8697 79.5002 19.9872 79.4415 20.0848C79.1525 20.5485 78.777 21.0463 78.3143 21.5776C77.745 22.2344 76.9786 22.8037 76.0153 23.2854C75.0519 23.7452 73.8258 23.9751 72.3369 23.9751ZM68.4794 12.9749C68.4017 13.2451 68.6181 13.4982 68.8993 13.4982H75.4819C75.7505 13.4982 75.964 13.266 75.9055 13.0039C75.746 12.2886 75.3885 11.6979 74.833 11.232C74.1761 10.6627 73.3112 10.3781 72.2383 10.3781C71.1217 10.3781 70.2349 10.6627 69.5781 11.232C69.0477 11.6917 68.6815 12.2726 68.4794 12.9749Z" fill="#222222"/>
<path d="M7.82635 23.9751C5.70247 23.9751 3.96184 23.5153 2.60428 22.5957C1.35755 21.7511 0.563273 20.5741 0.221462 19.0646C0.169252 18.834 0.31662 18.6092 0.545504 18.55L3.48395 17.79C3.7375 17.7245 3.9919 17.8861 4.06273 18.1383C4.21633 18.6855 4.43081 19.1314 4.70626 19.4756C5.07847 19.9135 5.52731 20.231 6.05279 20.428C6.60024 20.6032 7.1914 20.6908 7.82635 20.6908C8.78971 20.6908 9.50129 20.5266 9.96117 20.1981C10.421 19.8478 10.6509 19.4209 10.6509 18.9173C10.6509 18.4137 10.4319 18.0306 9.99401 17.7677C9.55603 17.4831 8.8554 17.2532 7.89203 17.0781L6.97245 16.9138C5.83384 16.6949 4.79384 16.3993 3.85237 16.0271C2.91081 15.633 2.15544 15.0966 1.58618 14.4178C1.01691 13.739 0.732283 12.8632 0.732283 11.7904C0.732283 10.1701 1.32344 8.93304 2.50576 8.07906C3.68816 7.20328 5.24268 6.76538 7.1695 6.76538C8.98677 6.76538 10.4976 7.17043 11.7018 7.98054C12.7736 8.70163 13.5159 9.62214 13.9287 10.7421C14.0144 10.9748 13.8771 11.2246 13.6402 11.2975L10.7015 12.2018C10.445 12.2807 10.1795 12.1206 10.0925 11.8668C9.89254 11.2841 9.57506 10.8535 9.14003 10.5751C8.61456 10.2248 7.95771 10.0497 7.1695 10.0497C6.38121 10.0497 5.7791 10.192 5.3631 10.4766C4.9471 10.7394 4.7391 11.1116 4.7391 11.5933C4.7391 12.1188 4.95805 12.5129 5.39595 12.7757C5.83384 13.0165 6.425 13.2026 7.1695 13.334L8.08908 13.4982C9.31519 13.7171 10.421 14.0127 11.4062 14.3849C12.4134 14.7353 13.2017 15.2498 13.7709 15.9286C14.3621 16.5854 14.6577 17.4831 14.6577 18.6217C14.6577 20.3295 14.0337 21.6542 12.7856 22.5957C11.5595 23.5153 9.90643 23.9751 7.82635 23.9751Z" fill="#222222"/>
<path d="M38.8946 4.59781C39.4201 5.07949 40.055 5.32033 40.7994 5.32033C41.5658 5.32033 42.2008 5.07949 42.7044 4.59781C43.2079 4.11604 43.4597 3.48109 43.4597 2.69288C43.4597 1.90467 43.2079 1.26964 42.7044 0.787956C42.2008 0.306272 41.5658 0.0654297 40.7994 0.0654297C40.055 0.0654297 39.4201 0.306272 38.8946 0.787956C38.391 1.26964 38.1391 1.90467 38.1391 2.69288C38.1391 3.48109 38.391 4.11604 38.8946 4.59781Z" fill="#222222"/>
<path d="M62.3088 18.5145C62.3532 18.5272 62.401 18.5183 62.4379 18.4905C62.4748 18.4626 62.4964 18.4192 62.4964 18.373C62.4964 16.4525 62.4964 0.981383 62.4964 0.981383C62.4964 0.729425 62.2922 0.525215 62.0403 0.525215H58.8143C58.5625 0.525215 58.3582 0.729425 58.3582 0.981383V9.09726H57.767C57.5481 8.70315 57.2306 8.33094 56.8146 7.98062C56.3986 7.63022 55.8512 7.34559 55.1725 7.12665C54.5155 6.8858 53.6945 6.76538 52.7092 6.76538C51.3955 6.76538 50.1803 7.0938 49.0637 7.75073C47.947 8.38568 47.0493 9.32715 46.3705 10.5752C45.6918 11.8232 45.3523 13.334 45.3523 15.1075V15.633C45.3523 15.9521 45.3634 16.2626 45.3854 16.5646C45.3899 16.6249 45.4206 16.6802 45.4693 16.7161C45.518 16.7519 45.5799 16.7647 45.6388 16.7512C46.7277 16.504 47.9097 16.3369 49.3065 16.3049C49.3632 16.3037 49.417 16.2792 49.4553 16.2372C49.4935 16.1952 49.5129 16.1394 49.5088 16.0827C49.4967 15.9053 49.4906 15.7224 49.4906 15.5345V15.2061C49.4906 13.6295 49.9176 12.4363 50.7715 11.6262C51.6254 10.7941 52.6873 10.3781 53.9572 10.3781C55.2491 10.3781 56.311 10.7941 57.143 11.6262C57.9969 12.4363 58.4239 13.6295 58.4239 15.2061V15.5345C58.4239 16.1317 58.3626 16.6754 58.2401 17.1658C58.2275 17.2141 58.2349 17.2653 58.2603 17.3082C58.2857 17.351 58.3273 17.3819 58.3757 17.394C59.5135 17.6795 60.5083 17.978 61.3558 18.2322C61.6975 18.3348 62.0153 18.4301 62.3088 18.5145Z" fill="#222222"/>
<path d="M20.1236 10.6408H24.134C24.386 10.6408 24.5902 10.4366 24.5902 10.1847V7.68134C24.5902 7.42946 24.386 7.22517 24.134 7.22517H20.1236V2.62357C20.1236 2.37161 19.9193 2.1674 19.6674 2.1674H16.4415C16.2002 2.1674 16.0027 2.35477 15.9864 2.59191L15.9863 12.8644C15.9864 17.5949 16.9138 24.9486 29.0413 24.9486C35.695 24.9486 39.0666 23.7801 42.0443 22.7481C44.3994 21.932 46.5081 21.2013 49.7992 21.2013C54.9133 21.2013 58.8027 22.3682 61.3558 23.1341L61.3559 23.1342C61.6285 23.216 61.9238 23.164 62.1521 22.9941C62.3804 22.8242 62.515 22.5564 62.515 22.2717C62.515 21.4654 62.515 20.4784 62.515 20.0652C62.515 19.949 62.438 19.8469 62.3263 19.8151C62.0278 19.7294 61.7042 19.6323 61.3558 19.5277C58.8027 18.7618 54.9133 17.5949 49.7992 17.5949C46.5081 17.5949 44.3994 18.3257 42.0443 19.1418C39.0666 20.1738 35.695 21.3423 29.0413 21.3423C19.6674 21.3423 20.0526 14.9063 20.0982 10.6407C20.1066 10.6408 20.115 10.6408 20.1236 10.6408Z" fill="#222222"/>
<path d="M26.9381 19.7228C26.9381 19.8263 27.0143 19.914 27.1168 19.9284C27.6841 20.0058 28.2964 20.0467 28.9571 20.0467C29.6294 20.0467 30.2683 20.0349 30.8766 20.0123C30.9881 20.0081 31.0763 19.9165 31.0763 19.8049C31.0763 18.7903 31.0763 14.2536 31.0763 14.2536C31.0763 13.0931 31.4157 12.2392 32.0945 11.6919C32.7732 11.1226 33.6381 10.8379 34.689 10.8379H36.2692C36.5211 10.8379 36.7253 10.6337 36.7253 10.3818V7.61566C36.7253 7.36379 36.5211 7.15949 36.2692 7.15949H34.7547C34.0103 7.15949 33.3535 7.31276 32.7842 7.61928C32.2368 7.92589 31.8427 8.40758 31.6019 9.06442H31.0106V7.68134C31.0106 7.42947 30.8064 7.22518 30.5545 7.22518H27.3943C27.1423 7.22518 26.9381 7.42947 26.9381 7.68134V19.7228Z" fill="#222222"/>
<path d="M42.0443 17.8463C42.2741 17.7667 42.5016 17.6878 42.728 17.6104C42.8121 17.5817 42.8686 17.5027 42.8686 17.414C42.8686 16.1805 42.8686 7.68134 42.8686 7.68134C42.8686 7.42947 42.6644 7.22518 42.4124 7.22518H39.1865C38.9346 7.22518 38.7304 7.42947 38.7304 7.68134V18.6296C38.7304 18.6946 38.7608 18.7558 38.8125 18.795C38.8642 18.8343 38.9312 18.8471 38.9938 18.8296C40.1121 18.516 41.0981 18.1742 42.0443 17.8463Z" fill="#222222"/>
</svg>
